<svg xmlns="http://www.w3.org/2000/svg" width="32" height="32" viewBox="0 0 32 32"><defs><linearGradient id="a" x1="50%" x2="50%" y1="0%" y2="100%"><stop offset="0%" stop-color="#5AAEDD"/><stop offset="100%" stop-color="#4293CD"/></linearGradient></defs><g fill="none" fill-rule="evenodd"><rect width="32" height="32" fill="url(#a)" rx="4"/><path fill="#FFF" fill-rule="nonzero" d="M8.283 15.713l3.686 1.383 1.427 4.612a.434.434 0 0 0 .69.208l2.055-1.683a.61.61 0 0 1 .747-.021l3.707 2.704a.434.434 0 0 0 .68-.264l2.716-13.126a.435.435 0 0 0-.582-.496l-15.13 5.866a.438.438 0 0 0 .004.817zm5.073.665l7.445-4.358c.133-.078.271.094.156.195l-6.144 5.428a1.192 1.192 0 0 0-.394.724l-.21 1.474c-.027.197-.318.217-.375.026l-.805-2.688a.697.697 0 0 1 .327-.801z"/></g></svg>