<svg xmlns="http://www.w3.org/2000/svg" xmlns:xlink="http://www.w3.org/1999/xlink" width="32" height="32" viewBox="0 0 32 32"><defs><linearGradient id="b" x1="50%" x2="50%" y1="0%" y2="100%"><stop offset="0%" stop-color="#56FF62"/><stop offset="100%" stop-color="#00DA1A"/></linearGradient><rect id="a" width="32" height="32" rx="4"/><linearGradient id="c" x1="50%" x2="50%" y1="-59.898%" y2="155.449%"><stop offset="0%" stop-color="#56FF62"/><stop offset="100%" stop-color="#00DA1A"/></linearGradient></defs><g fill="none" fill-rule="evenodd"><use fill="#B0B0B0" xlink:href="#a"/><use fill="url(#b)" xlink:href="#a"/><g fill="#FFF" fill-rule="nonzero"><path stroke="url(#c)" d="M12.64 9.907c-.328-.34-.722-.523-1.141-.523-.415 0-.814.18-1.154.52l-1.067 1.063c-.088-.047-.176-.09-.26-.135a3.913 3.913 0 0 1-.334-.179c-1-.634-1.907-1.461-2.778-2.531-.422-.534-.706-.983-.912-1.438.277-.253.534-.517.783-.77.095-.094.19-.192.284-.287.709-.709.709-1.627 0-2.336l-.922-.921c-.104-.105-.212-.213-.313-.32-.203-.21-.416-.426-.635-.629-.328-.324-.72-.496-1.13-.496-.413 0-.811.172-1.149.496l-.006.007L.758 2.586a2.47 2.47 0 0 0-.732 1.57c-.081.985.209 1.903.432 2.504.546 1.475 1.363 2.842 2.582 4.307a15.885 15.885 0 0 0 5.29 4.142c.776.368 1.812.803 2.97.878.07.003.145.006.212.006.78 0 1.435-.28 1.948-.837.003-.006.01-.01.014-.017.175-.212.378-.405.59-.61.145-.139.294-.284.44-.436.333-.348.509-.753.509-1.168 0-.418-.179-.82-.52-1.158l-1.853-1.86z" transform="translate(8 8)"/><path d="M16.643 11.804a4.28 4.28 0 0 1 2.33 1.209 4.303 4.303 0 0 1 1.208 2.329c.037.223.23.378.449.378a.456.456 0 0 0 .452-.533 5.206 5.206 0 0 0-1.462-2.819 5.206 5.206 0 0 0-2.818-1.461.458.458 0 0 0-.527.37.45.45 0 0 0 .368.527zm7.332 3.251a8.565 8.565 0 0 0-2.407-4.641 8.565 8.565 0 0 0-4.641-2.407.454.454 0 1 0-.149.898 7.67 7.67 0 0 1 4.149 2.15 7.647 7.647 0 0 1 2.15 4.149c.037.222.23.378.449.378.027 0 .05-.004.078-.007a.447.447 0 0 0 .37-.52z"/></g></g></svg>