<svg xmlns="http://www.w3.org/2000/svg" width="40" height="40" fill="none">
  <path d="M23.638 3.333a3.208 3.208 0 100 6.416 3.208 3.208 0 000-6.416z" fill="#5C5A57"/>
  <path d="M14.497 7.497h-2.379c-.851 0-1.617.519-1.933 1.31l-2.944 7.36c-.396.989.02 2.118.963 2.614l8.75 4.331 3.124-10.41.497-1.67 2.626 1.67V10.62l-4.048-2.024a10.41 10.41 0 00-4.656-1.099z" fill="#00a646"/>
  <path d="M26.366 17.902s3.988 2.344 4.61 2.63c.571.26 1.206.777.825 1.45-.382.674-1.329.543-2.09.203-.858-.383-3.685-1.667-4.266-1.987-.496-.274-.682-.382-.863-.663-.378-.589-1.11-1.63-1.11-1.63l-1.312 5.207s2.054 2.475 3.748 5.352l2.498 5.058c.535.909 1.543 2.265.58 2.8-1.152.64-1.901.11-2.727-.962l-4.099-6.622c-1.582-2.503-3.93-3.19-4.164-3.544-.527-.798-.498-3.316-.235-4.663.154-.784.617-3.105 1.071-5.22l-2.764 2.121s-1.08 4.077-1.195 4.64c-.14.682-.628 1.83-1.1 1.733-.58-.121-1.091-.532-.962-1.504l.906-6.1c.147-.451.383-.768.757-.984l4.232-3.603c.502-.281.803-.581 1.625-.581h1.564c1.018 0 1.534.418 2.245 2.031.755 1.712 2.226 4.838 2.226 4.838z" fill="#21201F"/>
  <path d="M17.06 24.153l-1.03 4.738s-2.665 3.859-3.406 4.94c-.556.81-.976 1.8-.022 2.52 1.069.81 1.717-.123 2.271-.747.586-.748 1.897-2.465 3.365-4.316a5.05 5.05 0 00.77-1.316c.11-.276 1.843-5.082 2.111-5.819h-4.06z" fill="#5C5A57"/>
  <path d="M25.99 15.2c-.395-1.012-1.065-2.583-1.748-3.539-.427 1.925-1.613 6.044-1.1 7.07.444.888 1.806-.677 2.606-1.728.394-.518.48-1.198.242-1.804z" fill="#00a646"/>
  <path d="M16.725 21.94l1.925-6.416 1.925-4.491c.428-.214 1.599-.926 2.625-.413 1.027.514 1.62 1.841 1.224 3.62-.427 1.926-1.283 6.032-1.283 7.059 0 .858.06.641.361 1.787.2.268.031 1.042-.302 1.067h-5.205c-2.082 0-1.912-1.087-1.912-1.087l.642-1.126z" fill="#00a646"/>
  <path d="M18.008 16.165c-1.027 0-2.139-2.994-2.567-4.49.856-.429 2.952-1.284 4.492-1.284s1.497 2.139 1.283 3.208c-.642.855-2.182 2.566-3.208 2.566z" fill="#00a646"/>
</svg>
