<svg width="11" height="15" viewBox="0 0 11 15" fill="none" xmlns="http://www.w3.org/2000/svg">
<path d="M4.95312 14.4766C4.47917 13.7839 3.86849 12.9089 3.12109 11.8516C2.20964 10.5391 1.60807 9.65495 1.31641 9.19922C0.897135 8.54297 0.614583 7.99609 0.46875 7.55859C0.322917 7.10286 0.25 6.58333 0.25 6C0.25 5.05208 0.486979 4.17708 0.960938 3.375C1.4349 2.57292 2.07292 1.9349 2.875 1.46094C3.67708 0.986979 4.55208 0.75 5.5 0.75C6.44792 0.75 7.32292 0.986979 8.125 1.46094C8.92708 1.9349 9.5651 2.57292 10.0391 3.375C10.513 4.17708 10.75 5.05208 10.75 6C10.75 6.58333 10.6771 7.10286 10.5312 7.55859C10.3854 7.99609 10.1029 8.54297 9.68359 9.19922C9.39193 9.65495 8.79036 10.5391 7.87891 11.8516L6.04688 14.4766C5.91927 14.6589 5.73698 14.75 5.5 14.75C5.26302 14.75 5.08073 14.6589 4.95312 14.4766ZM5.5 8.1875C6.10156 8.1875 6.61198 7.97786 7.03125 7.55859C7.46875 7.12109 7.6875 6.60156 7.6875 6C7.6875 5.39844 7.46875 4.88802 7.03125 4.46875C6.61198 4.03125 6.10156 3.8125 5.5 3.8125C4.89844 3.8125 4.37891 4.03125 3.94141 4.46875C3.52214 4.88802 3.3125 5.39844 3.3125 6C3.3125 6.60156 3.52214 7.12109 3.94141 7.55859C4.37891 7.97786 4.89844 8.1875 5.5 8.1875Z" fill="#1E282C"/>
</svg>
