<?xml version="1.0" standalone="no"?>
<!DOCTYPE svg PUBLIC "-//W3C//DTD SVG 20010904//EN"
 "http://www.w3.org/TR/2001/REC-SVG-20010904/DTD/svg10.dtd">
<svg version="1.0" xmlns="http://www.w3.org/2000/svg"
 width="708.000000pt" height="262.000000pt" viewBox="0 0 708.000000 262.000000"
 preserveAspectRatio="xMidYMid meet">
<metadata>
Created by potrace 1.16, written by Peter Selinger 2001-2019
</metadata>
<g transform="translate(0.000000,262.000000) scale(0.100000,-0.100000)"
fill="#00a646" stroke="none">
<path d="M6025 2341 l-650 -146 -156 -370 -156 -370 118 -3 c66 -1 119 -6 119
-10 0 -4 -29 -74 -64 -157 -147 -345 -326 -763 -345 -807 l-20 -48 482 0 482
0 92 218 c103 242 290 681 322 755 l20 47 152 0 c272 0 268 -4 441 405 70 165
130 308 134 318 6 16 -8 17 -200 17 -113 0 -206 4 -206 8 0 5 18 51 41 103 79
184 81 189 61 188 -9 -1 -309 -67 -667 -148z"/>
<path d="M2635 2195 c-476 -87 -861 -516 -915 -1019 -21 -191 14 -360 103
-493 73 -109 175 -182 317 -224 71 -21 96 -23 468 -27 l394 -3 51 26 c29 14
62 38 74 54 13 16 83 170 156 342 l134 314 -358 5 c-391 5 -391 5 -391 64 0
52 5 53 250 58 264 6 309 16 427 97 126 85 212 218 242 370 14 71 15 94 5 154
-27 153 -115 244 -274 282 -83 19 -578 20 -683 0z"/>
<path d="M135 2178 c3 -13 75 -359 160 -770 l154 -747 -90 -213 c-50 -117 -95
-223 -100 -236 l-9 -23 443 3 443 3 43 28 c51 34 67 59 130 207 95 224 311
730 481 1130 95 223 194 456 221 519 27 63 49 116 49 118 0 2 -185 2 -412 1
l-412 -3 -105 -249 c-75 -177 -107 -243 -112 -230 -4 11 -24 124 -45 252 l-37
232 -404 0 -403 0 5 -22z"/>
<path d="M4021 2189 c-77 -15 -169 -65 -235 -129 -104 -99 -156 -223 -156
-365 0 -141 37 -222 181 -397 l101 -123 -214 -3 -213 -3 -147 -352 c-81 -194
-150 -360 -154 -370 -6 -17 25 -18 682 -15 l689 3 58 23 c265 107 391 425 269
681 -14 30 -72 112 -128 182 l-103 127 127 4 c217 6 214 4 387 409 74 174 135
322 135 328 0 13 -1210 14 -1279 0z"/>
</g>
</svg>
