<svg width="375" height="667" viewBox="0 0 375 667" xmlns="http://www.w3.org/2000/svg" xmlns:xlink="http://www.w3.org/1999/xlink"><defs><path id="a" d="M0 0h115.942v78.502H0z"/><path id="c" d="M0 .242h231.88v108.303H0z"/><path id="e" d="M0 .15h374.85v666.366H0z"/></defs><g fill="none" fill-rule="evenodd"><path fill="#FBF5E4" d="M0 666.516h374.849V.15H0z"/><path fill="#F5EBD6" d="M50.423 141.908l16.002 15.097 35.628-26.268-22.04-19.022zm80.616-44.082l-8.756-14.493-12.38 9.662 10.87 14.191zM84.843 276.268l-8.152-14.493 10.567-5.434-14.492-24.155-17.814 12.077 8.756 16.003-8.756 8.454 14.492 17.21zm25.06-98.128l21.136-11.473-16.909-26.57-18.72 12.983zm21.74 178.744l-30.194 6.34v22.947l30.194-3.32zM87.862 159.118l-15.096 8.756 15.096 20.532 14.191-8.454zm11.474 135.266l-6.34-8.454-16.909 7.246 6.039 9.964zm223.128-206.22l17.512 28.08 34.873-29.63V66.105L362.62 54.348zm27.174 194.445l25.21 11.46v-36.59l-16.152-8.687zM59.777 461.96L7.21 472.449l9.087 37.693 48.685-7.582zm276.878-140.704l38.194 17.61V309.14l-29.74-15.964zm12.983-195.35l12.983 22.645 12.228-4.39v-33.862zM67.715 543.851l-4.686-27.72-41.791 9.704 4.608 29.344zm98.952-397.111l-26.268-36.535-13.587 6.34 11.775 18.117-9.058 8.756 12.38 18.72zM0 627.41v31.719l2.415 3.009 35.025-31.1-16.607-22.342zm24.979 39.106H60.22L49.819 647.04zM0 210.844v10.449l6.34 8.176 14.795-12.078 9.36 7.549 24.155-16.305-20.532-23.249zm18.633 135.774l29.206-8.519L39.3 316.05l-28.385 4.98zM0 406.139v27.012l13.631-2.857 8.323 19.761 37.322-8.13-9.206-48.761zm282.075 260.377h31.509l12.342-19.74-24.218-13.665zm26.345-255.655l37.422 11.846 8.436 27.373 20.57-3.537v-59.308l-60.487-19.148zm-139.942-58.506l-27.174 2.416v11.775l27.174-1.51zm3.623-320.652L187.5 54.348l22.343-14.795-14.19-19.927zm80.013 355.978l-20.23-8.152-5.435 11.473-24.456-6.642 1.51-14.795h-27.174l-7.85 39.553 67.028 14.493zm-62.209 98.754L158.2 473.832l-9.606 17.114-5.465 49.216 21.289 7.102zm53.151-408.536l-25.665 17.21 11.474 19.021 28.381-19.021zm-7.549-6.945l-18.116-22.343-21.739 18.116 14.795 18.418zM0 173.38v8.884l9.36 11.275 18.418-13.889-16.305-18.418z"/><path fill="#CFE2BF" d="M281.799.15l36.74 39.403 19.625-15.398L362.621 7.85 361.4.15zM180.254 313.406c2.29-.353 100.845 1.811 100.845 1.811l32.307-99.637v-30.194l-44.082-45.29-112.017 77.295c-1.057 3.623-7.753 39.358-2.416 59.481 1.35 5.088 15.727 7.53 17.061 12.199 3.943 13.797 7.446 24.467 8.302 24.335m194.595 224.712l-25.136 2.499-23.464 10.117 2.977 35.214 34.506 10.458 11.117.314z"/><g transform="translate(0 31.703)"><mask id="b" fill="#fff"><use xlink:href="#a"/></mask><path fill="#CFE2BF" mask="url(#b)" d="M20.531 78.502l12.983-16.304 21.438 3.321L79.71 44.082l18.116 11.474 18.116-9.36L86.352 0 35.93 7.246-.151 46.206V68.51z"/></g><g transform="translate(0 557.971)"><mask id="d" fill="#fff"><use xlink:href="#c"/></mask><path d="M231.058 107.337c-11.803-17.18-24.9-29.583-38.93-36.863-9.938-5.157-29.33-11.189-65.315-10.672-19.024.276-35.99 2.322-44.338 3.846-7.108-7.234-14.18-14.058-21.11-20.352C46.904 30.159 22.903 14.369-.15.242v21.662c19.085 11.973 37.603 24.55 49.132 35.024 16.21 14.725 33.25 32.469 49.658 51.617h24.028c-10.248-12.506-20.87-24.595-31.51-35.875 8.753-1.186 21.744-2.4 35.804-2.603 33.848-.487 51.548 4.906 60.44 9.52 13.14 6.817 23.907 18.242 31.873 28.958h12.605c-.27-.4-.543-.803-.821-1.208" fill="#FFF" mask="url(#d)"/></g><mask id="f" fill="#fff"><use xlink:href="#e"/></mask><path d="M287.373 584.796c-15.754-3.494-32.152-4.652-49.513-5.879-16.877-1.192-34.204-2.416-50.82-5.985 5.102-11.19 13.876-30.157 19.31-40.378 3.976-7.479 12.504-21.787 23.302-39.9a7934.63 7934.63 0 0 0 18.627-31.364c13.872 5.833 26.956 12.778 38.498 21 4.959 3.531 10.44 6.714 16.422 9.544-5.494 25.542-1.642 63.013 1.03 89.01.333 3.235.65 6.327.93 9.197-5.506-2.09-11.422-3.835-17.786-5.245m-143.05-29.034c-9.757-6.464-18.246-14.41-25.95-24.288-19.005-24.367-24.194-61.407-25.867-97.05 29.384-1.718 86.902 2.572 138.305 20.224a8202.417 8202.417 0 0 1-16.98 28.575c-10.926 18.33-19.556 32.808-23.744 40.685-6.191 11.646-16.129 33.27-21.012 44.027-9.107-3.195-17.24-7.197-24.752-12.173M91.624 399.805c-.239-16.737-.453-31.645-1.86-44.133 7.637-2.277 14.714-4.114 20.83-5.296 40.488-7.822 80.855-9.655 107.588-9.815 28.693-.166 55.583 1.55 73.938 4.663l.023.062.1-.041a.676.676 0 0 0 .024.004c-16.343 31.484-35.032 64.316-51.946 93.229-23.222-8.278-46.363-13.436-65.252-16.625-33.094-5.588-63.416-6.892-83.17-5.815-.121-5.527-.2-10.958-.275-16.233M45.288 268.919c-7.465-5.877-15.796-10.778-24.94-14.692 14.955-11.58 34.222-24.616 56.434-37.383 3.872 5.04 7.156 9.526 9.707 13.199 5.212 7.501 13.34 24.798 22.471 64.602 3.273 14.266 5.738 27.454 7.228 35.987a469.432 469.432 0 0 0-9.088 1.66c-6.197 1.198-13.171 2.97-20.617 5.138-7.11-29.547-20.942-52.564-41.195-68.51m109.776-89.458c36.657-14.02 80.545-43.285 120.362-73.215 14.047 18.553 27.087 36.575 37.182 51.405 14.644 21.513 18.648 29.726 19.697 32.28-.38 2.685-1.849 10.063-7.38 29.594-4.54 16.036-10.366 35.228-16 53.787-4.83 15.912-9.393 30.94-12.657 42.394-1.253 4.397-2.252 8.045-3.022 11.043-19.382-3.084-46.525-4.776-75.174-4.607-21.493.129-51.574 1.313-83.672 5.682-1.51-8.694-4.038-22.243-7.46-37.178-7.866-34.321-16.387-58.247-25.325-71.113-2.372-3.414-5.244-7.366-8.537-11.712 19.17-10.216 40.078-19.98 61.986-28.36M144.17 76.805c-13.882-17.345-29.886-37.771-43.963-56.836 4.257-.509 8.6-1.01 12.995-1.498 67.388-7.478 82.107-4.47 84.372-3.795 1.347.89 7.837 5.78 26.785 27.78 12.918 14.998 28.82 34.723 44.85 55.63-23.194 17.438-47.724 34.607-71.265 48.542l2.161-1.835c-.263-.31-26.663-31.418-55.935-67.988m210.186 410.56c-23.903-3.458-43.045-10.213-56.893-20.077-12.292-8.756-25.863-16.004-39.786-22.004 17.443-29.87 36.644-63.725 53.24-96.008 19.422 4.673 36.678 9.953 52.464 16.048a299.43 299.43 0 0 1 11.47 4.699v-19.97c-15.973-6.45-33.847-12.185-53.576-17.183 3.02-11.439 9.578-33.043 15.097-51.225 16.817-55.398 24.74-82.61 24.74-92.786 0-5.48-1.672-12.892-21.861-43.01-10.76-16.052-25.233-36.157-41.079-57.079 22.095-17.322 42.047-33.9 57.598-46.822 7.345-6.102 13.916-11.562 19.08-15.732v-13.07c-5.218 3.962-13.304 10.656-25.64 20.906-15.46 12.846-35.312 29.341-57.26 46.554-16.55-21.585-32.898-41.85-46.286-57.367-9.213-10.677-16.042-18-21.242-23.088H34.376c-4.114.695-6.977 1.245-8.2 1.588-3.742 1.047-7.71 3.32-17.952 12.313a424.855 424.855 0 0 0-8.375 7.583v39.764c1.933-1.908 3.954-3.89 6.052-5.93 17.254-16.778 26-24.141 29.095-26.319 5.816-1.1 26.073-4.246 51.451-7.483 37.732 51.835 94.37 119.036 103.366 129.664-13.366 7.547-26.318 13.916-38.416 18.543-21.424 8.194-43.404 18.328-64.68 29.739-9.468-11.965-21.336-25.908-34.506-39.687C32.717 139.531 15.17 124.458-.15 114.923v22.302c11.69 8.656 24.873 20.597 39.048 35.427 11.836 12.384 22.689 25.056 31.494 36.049-11.455 6.615-22.6 13.565-33.221 20.742-10.385 7.018-19.863 13.991-28.07 20.597a138.25 138.25 0 0 0-9.25-2.598v24.245a178.857 178.857 0 0 1 4.2-3.917c11.33 3.687 21.315 8.904 29.844 15.62 8.801 6.93 16.24 15.614 22.111 25.812 5.596 9.72 9.904 21.059 12.856 33.776-23.455 7.854-49.007 18.02-69.012 26.136v19.883c18.816-7.663 46.636-18.922 71.976-27.56.99 11.12 1.183 24.59 1.383 38.63.67 46.948 1.505 105.376 30.642 142.734 37.236 47.744 87.96 51.327 132.712 54.488 32.055 2.265 62.332 4.404 83.58 22.365 11.472 9.697 20.755 20.738 27.592 32.814a109.036 109.036 0 0 1 6.676 14.048h19.562a127.161 127.161 0 0 0-9.906-22.581c-7.945-14.193-18.723-27.095-32.034-38.347-4.865-4.113-10.222-7.687-16.126-10.753-.36-4.298-.88-9.354-1.465-15.04-2.542-24.727-6.187-60.197-1.627-83.88 11.502 4.365 24.549 7.61 39.054 9.7 7.287 1.049 14.958 1.81 22.981 2.284v-18.45c-7.158-.45-13.999-1.145-20.494-2.084" fill="#FFF" mask="url(#f)"/></g></svg>