<svg xmlns="http://www.w3.org/2000/svg" width="20" height="20" fill="none">
  <rect x="3.5" y="5.5" width="13" height="11" rx="1.5" stroke="#000"/>
  <mask id="a" fill="#fff">
    <path fill-rule="evenodd" clip-rule="evenodd" d="M3.103 12.858A2 2 0 013 12.225V6.442a2 2 0 011.368-1.898l8-2.666A2 2 0 0115 3.775v.229"/>
  </mask>
  <path d="M4.368 4.544l.316.949-.316-.949zm8-2.666l.316.948-.316-.948zm2.53 1.265l.948-.317-.949.317zm.102.632h-1 1zM4.051 12.541A1 1 0 014 12.225H2a3 3 0 00.154.949l1.897-.633zM4 12.225V6.442H2v5.783h2zm0-5.783a1 1 0 01.684-.95L4.05 3.597A3 3 0 002 6.442h2zm.684-.95l8-2.666L12.05.93l-8 2.667.633 1.897zm8-2.666a1 1 0 011.265.633l1.897-.633A3 3 0 0012.051.93l.633 1.897zm1.265.633a1 1 0 01.051.316h2c0-.322-.052-.643-.154-.949l-1.897.633zm.051.316V4.004h2v-.001V4 4v-.001-.001-.001-.001-.001-.001-.001-.001-.001-.001-.001-.001-.001-.001-.001-.001-.001-.001-.001-.001-.001-.001-.001-.001-.001-.001-.001-.001-.001-.001-.001-.001-.001-.001-.001-.001-.001-.001-.001-.001-.001-.001-.001-.001-.001-.001-.001-.001-.001-.001-.001-.001-.001-.001-.001-.001-.001-.001-.001-.001-.001-.001-.001-.001-.001-.001-.001-.001-.001-.001-.001-.001-.001-.001-.001-.001-.001-.001-.001-.001-.001-.001-.001-.001-.001-.001-.001-.001-.001-.001-.001-.001-.001-.001-.001-.001-.001-.001V3.9 3.9v-.001-.001-.001-.001-.001-.001-.001-.001-.001-.001-.001-.001-.001-.001-.001-.001-.001-.001-.001-.001-.001-.001-.001-.001-.001-.001-.001-.001-.001-.001-.001-.001-.001-.001-.001-.001-.001-.001-.001-.001-.001-.001-.001-.001-.001-.001-.001-.001-.001-.001-.001-.001-.001-.001-.001-.001-.001-.001-.001-.001-.001-.001-.001-.001-.001-.001-.001-.001-.001-.001-.001-.001-.001-.001-.001-.001-.001-.001-.001-.001-.001-.001-.001-.001-.001-.001-.001-.001-.001-.001-.001-.001-.001-.001-.001-.001-.001-.001V3.8 3.8v-.001-.001-.001-.001-.001-.001-.001-.001-.001-.001-.001-.001-.001-.001-.001-.001-.001-.001-.001-.001-.001-.001-.001-.001-.001h-2z" fill="#000" mask="url(#a)"/>
  <path fill-rule="evenodd" clip-rule="evenodd" d="M13 12a1 1 0 100-2 1 1 0 000 2z" fill="#000"/>
</svg>
