<svg fill="#ee5a6d" stroke="#ee5a6d" viewBox="0 0 512 512" xmlns="http://www.w3.org/2000/svg" width="512" height="512">
  <path fill="#ee5a6d" stroke="#ee5a6d" d="M256 64c105.875 0 192 86.125 192 192s-86.125 192-192 192S64 361.875 64 256 150.125 64 256 64m0-32C132.281 32 32 132.281 32 256s100.281 224 224 224 224-100.281 224-224S379.719 32 256 32zm-64 112c-17.688 0-32 21.5-32 48 0 26.531 14.313 48 32 48s32-21.469 32-48c0-26.5-14.312-48-32-48zm128 0c-17.688 0-32 21.5-32 48 0 26.531 14.313 48 32 48s32-21.469 32-48c0-26.5-14.312-48-32-48zm73.594 220.813c7.063-5.313 8.5-15.344 3.219-22.406C363.719 298.313 311.094 272 256 272s-107.734 26.313-140.797 70.406c-5.313 7.063-3.875 17.094 3.188 22.406 7.078 5.281 17.094 3.844 22.406-3.219C167.859 325.531 210.922 304 256 304c45.063 0 88.156 21.531 115.188 57.594A16.038 16.038 0 00384 368c3.344 0 6.719-1.031 9.594-3.187z"/>
</svg>
