<?xml version="1.0" encoding="utf-8"?>
<!-- Generator: Adobe Illustrator 21.0.0, SVG Export Plug-In . SVG Version: 6.00 Build 0)  -->
<svg version="1.0" id="Слой_1" xmlns="http://www.w3.org/2000/svg" xmlns:xlink="http://www.w3.org/1999/xlink" x="0px" y="0px"
	 viewBox="0 0 841.9 595.3" style="enable-background:new 0 0 841.9 595.3;" xml:space="preserve">
<style type="text/css">
	.st0{fill:#00963E;}
</style>
<g>
	<path class="st0" d="M619.4,241.4l8.3-19.5l-87,19.4l-20.6,48.6h16.2L507.7,357h62.5l28.6-67.2h18.3c5.7,0,10.8-3.4,13-8.6l17-39.8
		H619.4z"/>
	<path class="st0" d="M366,308.6c-2.4,0-4.4-2-4.3-4.4v0c0-2.4,2-4.2,4.3-4.2l21.5,0c21,0,35.6-19.2,35.6-36.1
		c0-4.6-1.1-11.4-6.4-16.5c-4.9-4.7-12.2-7.1-21.6-7.1h-22.7c-42.8,0-72.6,39-72.6,74.6c0,12.1,3.6,22.3,10.3,29.6
		c7.6,8.2,18.8,12.4,33.2,12.4h38c5.7,0,10.8-3.4,13-8.6l17-39.8L366,308.6z"/>
	<path class="st0" d="M503.3,303.8l-11.7-14.2l13.9,0c5.7,0,10.8-3.4,13-8.6l16.9-39.8l-77-0.1c-27.5,0-42.7,32-25.2,53.2l11.7,14.2
		l-28.4,0L396.1,357l82.1,0.1C505.7,357.1,520.8,325.1,503.3,303.8z"/>
	<path class="st0" d="M268.5,241.2l-14.7,34.6l-5.6-34.6h-52.4l20.9,100.9l-13,30.7h52.8c5.7,0,10.8-3.4,13-8.6l52.3-122.9H268.5z"
		/>
</g>
</svg>
